<?xml version="1.0" encoding="UTF-8" standalone="no"?>
<svg width="29px" height="28px" viewBox="0 0 29 28" version="1.1" xmlns="http://www.w3.org/2000/svg" xmlns:xlink="http://www.w3.org/1999/xlink">
    <!-- Generator: Sketch 3.6.1 (26313) - http://www.bohemiancoding.com/sketch -->
    <title>Github</title>
    <desc>Created with Sketch.</desc>
    <defs></defs>
    <g id="Home" stroke="none" stroke-width="1" fill="none" fill-rule="evenodd">
        <g id="Desktop-Copy" transform="translate(-570.000000, -1681.000000)" fill="#616161">
            <g id="Social-Bar" transform="translate(341.000000, 1655.000000)">
                <path d="M243.499094,26 C235.492375,26 229,32.4263527 229,40.3554475 C229,46.6965701 233.15425,52.076835 238.917094,53.9752242 C239.642094,54.1071067 239.906719,53.6639099 239.906719,53.2835143 C239.906719,52.9425938 239.894031,52.0400514 239.886781,50.8423436 C235.853062,51.7098968 235.002094,48.9179367 235.002094,48.9179367 C234.34325,47.2599862 233.392594,46.8185837 233.392594,46.8185837 C232.075813,45.9277045 233.492281,45.9456477 233.492281,45.9456477 C234.946812,46.0470267 235.712594,47.4250635 235.712594,47.4250635 C237.006719,49.6186182 239.1065,48.9852237 239.933,48.6173883 C240.064406,47.6897255 240.439594,47.0572281 240.85375,46.6983644 C237.633844,46.335912 234.249,45.1050093 234.249,39.6045251 C234.249,38.0371876 234.813594,36.756044 235.741594,35.7521226 C235.592062,35.3887731 235.094531,33.9299919 235.882969,31.9535497 C235.882969,31.9535497 237.100969,31.5677712 239.870469,33.4248911 C241.02775,33.1063996 242.2675,32.9476023 243.500906,32.9413222 C244.7325,32.9476023 245.973156,33.1063996 247.131344,33.4248911 C249.899031,31.5677712 251.114312,31.9535497 251.114312,31.9535497 C251.905469,33.9299919 251.407938,35.3887731 251.258406,35.7521226 C252.188219,36.756044 252.749188,38.0371876 252.749188,39.6045251 C252.749188,45.1184667 249.358906,46.3323234 246.129031,46.6875985 C246.649219,47.1307952 247.113219,48.0064228 247.113219,49.3458818 C247.113219,51.2649057 247.095094,52.8125057 247.095094,53.2835143 C247.095094,53.6674986 247.356094,54.1142839 248.091969,53.9734299 C253.849375,52.071452 258,46.6947757 258,40.3554475 C258,32.4263527 251.507625,26 243.499094,26" id="Github"></path>
            </g>
        </g>
    </g>
</svg>