<?xml version="1.0" encoding="UTF-8" standalone="no"?>
<svg width="29px" height="24px" viewBox="0 0 29 24" version="1.1" xmlns="http://www.w3.org/2000/svg" xmlns:xlink="http://www.w3.org/1999/xlink">
    <!-- Generator: Sketch 3.6.1 (26313) - http://www.bohemiancoding.com/sketch -->
    <title>Twitter</title>
    <desc>Created with Sketch.</desc>
    <defs></defs>
    <g id="Home" stroke="none" stroke-width="1" fill="none" fill-rule="evenodd">
        <g id="Desktop-Copy" transform="translate(-428.000000, -1683.000000)" fill="#616161">
            <g id="Social-Bar" transform="translate(341.000000, 1655.000000)">
                <path d="M116,30.8411701 C114.934437,31.3230769 113.787169,31.6489707 112.58373,31.7945829 C113.812702,31.0457205 114.755708,29.8582882 115.199977,28.4437703 C114.049304,29.1371614 112.777778,29.6416035 111.41944,29.912026 C110.336855,28.7349946 108.789576,28 107.077185,28 C103.793684,28 101.129776,30.7128927 101.129776,34.0585049 C101.129776,34.5334778 101.180842,34.9945829 101.282972,35.4383532 C96.3381464,35.1852654 91.955039,32.7757313 89.0187826,29.1059588 C88.5064272,30.0039003 88.2136526,31.0457205 88.2136526,32.1551463 C88.2136526,34.2561213 89.2638962,36.1109426 90.8605388,37.1978332 C89.8868932,37.168364 88.9677173,36.8927411 88.1642895,36.4420368 L88.1642895,36.5165764 C88.1642895,39.4530878 90.2154135,41.9024919 92.9388977,42.4572048 C92.4401597,42.5993499 91.9141868,42.6704225 91.3711921,42.6704225 C90.9882021,42.6704225 90.6137231,42.6340195 90.2511592,42.5629469 C91.0086283,44.9690141 93.2044374,46.7215601 95.8087691,46.768364 C93.7729647,48.3943662 91.2060809,49.3633803 88.4196161,49.3633803 C87.939602,49.3633803 87.4646945,49.3356446 87,49.2801733 C89.6332688,50.9963164 92.7618712,52 96.1202677,52 C107.06527,52 113.048424,42.7692308 113.048424,34.7622969 C113.048424,34.4988082 113.043317,34.2353196 113.033104,33.9770314 C114.195692,33.1224269 115.205083,32.056338 116,30.8411701" id="Twitter"></path>
            </g>
        </g>
    </g>
</svg>