<?xml version="1.0" encoding="UTF-8" standalone="no"?>
<svg width="29px" height="29px" viewBox="0 0 29 29" version="1.1" xmlns="http://www.w3.org/2000/svg" xmlns:xlink="http://www.w3.org/1999/xlink">
    <!-- Generator: Sketch 39 (31667) - http://www.bohemiancoding.com/sketch -->
    <title>Fill 9</title>
    <desc>Created with Sketch.</desc>
    <defs></defs>
    <g id="Symbols" stroke="none" stroke-width="1" fill="none" fill-rule="evenodd">
        <g id="Social-Bar" transform="translate(-34.000000, -26.000000)" fill="#616161">
            <path d="M58.0872188,32.6863125 C57.8262187,33.03975 55.7509062,35.7005 51.171625,37.5700938 C51.4598125,38.1591563 51.7362187,38.76 51.9926875,39.3635625 C52.0842188,39.5774375 52.1730312,39.7904063 52.2600312,40.0024688 C56.38075,39.485 60.4760938,40.315125 60.8839063,40.4012188 C60.8567188,37.4785625 59.8118125,34.79425 58.0872188,32.6863125 M45.5981875,28.4776875 C45.9398438,28.93625 48.1900625,31.999375 50.2191563,35.7276875 C54.6235313,34.0774063 56.4876875,31.571625 56.710625,31.2544375 C54.5229375,29.31325 51.6474063,28.1333125 48.5,28.1333125 C47.5013125,28.1333125 46.5289063,28.2529375 45.5981875,28.4776875 M36.3770938,37.9815313 C36.9308125,37.9887813 42.033,38.0114375 47.8266563,36.472625 C45.7749063,32.8249688 43.5609375,29.7573125 43.2346875,29.309625 C39.7700938,30.9445 37.1800313,34.138125 36.3770938,37.9815313 M39.2988438,48.7994375 C39.5797813,48.319125 42.9782188,42.6913125 49.366375,40.626875 C49.5276875,40.5743125 49.6908125,40.525375 49.8539375,40.4791563 C49.5430938,39.7759063 49.2050625,39.07175 48.8498125,38.3775625 C42.6646563,40.228125 36.6634687,40.1510938 36.1215313,40.1402188 C36.1179063,40.2661875 36.1151875,40.3921563 36.1151875,40.518125 C36.1151875,43.6990625 37.3205,46.6035938 39.2988438,48.7994375 M53.3384687,51.9196563 C53.1535938,50.8330625 52.4349375,47.0458438 50.6958438,42.5272813 C50.6686562,42.5363438 50.6414688,42.5454063 50.6142812,42.5544688 C43.6289062,44.9886563 41.1213125,49.8334688 40.898375,50.2893125 C42.9981563,51.9269063 45.6371563,52.9038438 48.5,52.9038438 C50.2155312,52.9038438 51.8513125,52.553125 53.3384687,51.9196563 M60.7289375,42.4846875 C60.3048125,42.3505625 56.8955,41.33375 53.0140312,41.9545313 C54.6344063,46.4060313 55.29325,50.0319375 55.420125,50.7850313 C58.1986875,48.906375 60.1770313,45.93025 60.7289375,42.4846875 M48.5,55 C40.5050625,55 34,48.4949375 34,40.5 C34,32.5041563 40.5050625,26 48.5,26 C56.4958438,26 63,32.5041563 63,40.5 C63,48.4949375 56.4958438,55 48.5,55" id="Fill-9"></path>
        </g>
    </g>
</svg>