<?xml version="1.0" encoding="UTF-8" standalone="no"?>
<svg width="29px" height="29px" viewBox="0 0 29 29" version="1.1" xmlns="http://www.w3.org/2000/svg" xmlns:xlink="http://www.w3.org/1999/xlink">
    <!-- Generator: Sketch 3.6.1 (26313) - http://www.bohemiancoding.com/sketch -->
    <title>Instagram</title>
    <desc>Created with Sketch.</desc>
    <defs></defs>
    <g id="Home" stroke="none" stroke-width="1" fill="none" fill-rule="evenodd">
        <g id="Desktop-Copy" transform="translate(-499.000000, -1681.000000)" fill="#616161">
            <g id="Social-Bar" transform="translate(341.000000, 1655.000000)">
                <path d="M183.375,52.28125 L161.625,52.28125 C161.12475,52.28125 160.71875,51.87525 160.71875,51.375 L160.71875,37.78125 L164.34375,37.78125 C163.871594,38.4609375 163.712094,39.7287813 163.712094,40.5335313 C163.712094,45.3865 167.669688,49.3350313 172.533531,49.3350313 C177.398281,49.3350313 181.355875,45.3865 181.355875,40.5335313 C181.355875,39.7287813 181.241688,38.4799687 180.65625,37.78125 L184.28125,37.78125 L184.28125,51.375 C184.28125,51.87525 183.87525,52.28125 183.375,52.28125 M172.533531,34.9700625 C175.613875,34.9700625 178.110594,37.4613438 178.110594,40.5335313 C178.110594,43.606625 175.613875,46.0979063 172.533531,46.0979063 C169.454094,46.0979063 166.957375,43.606625 166.957375,40.5335313 C166.957375,37.4613438 169.454094,34.9700625 172.533531,34.9700625 M179.75,29.625 L182.46875,29.625 C182.969,29.625 183.375,30.031 183.375,30.53125 L183.375,33.25 C183.375,33.75025 182.969,34.15625 182.46875,34.15625 L179.75,34.15625 C179.24975,34.15625 178.84375,33.75025 178.84375,33.25 L178.84375,30.53125 C178.84375,30.031 179.24975,29.625 179.75,29.625 M183.552625,26 L161.447375,26 C159.543344,26 158,27.5397187 158,29.4392187 L158,51.5607813 C158,53.4602813 159.543344,55 161.447375,55 L183.552625,55 C185.456656,55 187,53.4602813 187,51.5607813 L187,29.4392187 C187,27.5397187 185.456656,26 183.552625,26" id="Instagram"></path>
            </g>
        </g>
    </g>
</svg>