<?xml version="1.0" encoding="UTF-8" standalone="no"?>
<svg width="26px" height="24px" viewBox="0 0 26 24" version="1.1" xmlns="http://www.w3.org/2000/svg" xmlns:xlink="http://www.w3.org/1999/xlink">
    <!-- Generator: Sketch 3.6.1 (26313) - http://www.bohemiancoding.com/sketch -->
    <title>LinkedIn</title>
    <desc>Created with Sketch.</desc>
    <defs></defs>
    <g id="Home" stroke="none" stroke-width="1" fill="none" fill-rule="evenodd">
        <g id="Desktop-Copy" transform="translate(-640.000000, -1683.000000)" fill="#616161">
            <g id="Social-Bar" transform="translate(341.000000, 1655.000000)">
                <path d="M325,52 L319.253645,52 L319.253645,43.5630403 C319.253645,41.3546776 318.354774,39.8470897 316.378175,39.8470897 C314.866298,39.8470897 314.025517,40.8644426 313.634172,41.8449126 C313.487418,42.1968368 313.510348,42.6870718 313.510348,43.1773068 L313.510348,52 L307.817498,52 C307.817498,52 307.890875,37.054748 307.817498,35.6962285 L313.510348,35.6962285 L313.510348,38.2549785 C313.84666,37.1361977 315.665804,35.5394762 318.568791,35.5394762 C322.17039,35.5394762 325,37.8846129 325,42.9344945 L325,52 L325,52 Z M302.060442,33.6569123 L302.023754,33.6569123 C300.189323,33.6569123 299,32.4105782 299,30.8307613 C299,29.2202087 300.224483,28 302.095602,28 C303.965193,28 305.11477,29.2171352 305.151458,30.826151 C305.151458,32.4059679 303.965193,33.6569123 302.060442,33.6569123 L302.060442,33.6569123 L302.060442,33.6569123 Z M299.655809,35.6962285 L304.723424,35.6962285 L304.723424,52 L299.655809,52 L299.655809,35.6962285 L299.655809,35.6962285 Z" id="LinkedIn"></path>
            </g>
        </g>
    </g>
</svg>