<?xml version="1.0" encoding="UTF-8" standalone="no"?>
<svg width="29px" height="29px" viewBox="0 0 29 29" version="1.1" xmlns="http://www.w3.org/2000/svg" xmlns:xlink="http://www.w3.org/1999/xlink">
    <!-- Generator: Sketch 3.6.1 (26313) - http://www.bohemiancoding.com/sketch -->
    <title>Spotify</title>
    <desc>Created with Sketch.</desc>
    <defs></defs>
    <g id="Home" stroke="none" stroke-width="1" fill="none" fill-rule="evenodd">
        <g id="Desktop-Copy" transform="translate(-357.000000, -1681.000000)" fill="#616161">
            <g id="Social-Bar" transform="translate(341.000000, 1655.000000)">
                <path d="M39.055,38.905 C34.415,36.15 26.6575,35.86 22.235,37.2375 C21.51,37.455 20.785,37.02 20.5675,36.3675 C20.35,35.6425 20.785,34.9175 21.4375,34.7 C26.585,33.1775 35.0675,33.4675 40.4325,36.6575 C41.085,37.02 41.3025,37.89 40.94,38.5425 C40.5775,39.05 39.7075,39.2675 39.055,38.905 M38.91,42.965 C38.5475,43.4725 37.895,43.69 37.3875,43.3275 C33.4725,40.935 27.5275,40.21 22.96,41.66 C22.38,41.805 21.7275,41.515 21.5825,40.935 C21.4375,40.355 21.7275,39.7025 22.3075,39.5575 C27.6,37.9625 34.125,38.76 38.62,41.515 C39.055,41.7325 39.2725,42.4575 38.91,42.965 M37.17,46.9525 C36.88,47.3875 36.3725,47.5325 35.9375,47.2425 C32.53,45.14 28.2525,44.705 23.1775,45.865 C22.67,46.01 22.235,45.6475 22.09,45.2125 C21.945,44.705 22.3075,44.27 22.7425,44.125 C28.2525,42.8925 33.0375,43.4 36.8075,45.72 C37.315,45.9375 37.3875,46.5175 37.17,46.9525 M30.5,26 C22.525,26 16,32.525 16,40.5 C16,48.475 22.525,55 30.5,55 C38.475,55 45,48.475 45,40.5 C45,32.525 38.5475,26 30.5,26" id="Spotify"></path>
            </g>
        </g>
    </g>
</svg>