<!-- github -->
<svg xmlns="http://www.w3.org/2000/svg" width="497" height="483">
  <g>
    <path d="M 247.539 0 C 110.845 0 0 110.731 0 247.329 C 0 356.607 70.927 449.316 169.283 482.02 C 181.654 484.309 186.196 476.655 186.196 470.122 C 186.196 464.225 185.965 444.74 185.861 424.074 C 116.993 439.035 102.462 394.892 102.462 394.892 C 91.201 366.304 74.977 358.704 74.977 358.704 C 52.519 343.353 76.67 343.667 76.67 343.667 C 101.528 345.413 114.617 369.156 114.617 369.156 C 136.694 406.967 172.525 396.035 186.651 389.717 C 188.872 373.729 195.288 362.82 202.366 356.644 C 147.386 350.388 89.586 329.181 89.586 234.412 C 89.586 207.411 99.256 185.346 115.092 168.026 C 112.522 161.795 104.05 136.641 117.49 102.573 C 117.49 102.573 138.277 95.925 185.581 127.925 C 205.325 122.443 226.502 119.697 247.539 119.604 C 268.576 119.697 289.768 122.443 309.551 127.925 C 356.799 95.925 377.557 102.573 377.557 102.573 C 391.03 136.641 382.554 161.795 379.984 168.026 C 395.855 185.346 405.459 207.409 405.459 234.412 C 405.459 329.406 347.551 350.324 292.43 356.446 C 301.308 364.122 309.219 379.174 309.219 402.248 C 309.219 435.34 308.932 461.975 308.932 470.122 C 308.932 476.704 313.388 484.416 325.937 481.987 C 424.238 449.246 495.076 356.57 495.076 247.329 C 495.076 110.731 384.247 0 247.539 0" fill="rgba(255, 255, 255, 1.00)"></path>
    <path d="M 92.712 352.326 C 92.168 353.554 90.231 353.923 88.47 353.081 C 86.674 352.274 85.665 350.598 86.247 349.364 C 86.781 348.099 88.718 347.746 90.51 348.596 C 92.31 349.401 93.335 351.093 92.712 352.326 M 104.888 363.181 C 103.708 364.275 101.4 363.767 99.833 362.039 C 98.214 360.314 97.911 358.01 99.109 356.898 C 100.326 355.806 102.564 356.316 104.188 358.043 C 105.807 359.787 106.121 362.077 104.886 363.183 M 113.242 377.07 C 111.724 378.123 109.243 377.136 107.711 374.936 C 106.195 372.738 106.195 370.1 107.744 369.043 C 109.282 367.986 111.724 368.936 113.277 371.119 C 114.791 373.355 114.791 375.993 113.24 377.072 M 127.368 393.156 C 126.011 394.65 123.122 394.25 121.006 392.21 C 118.843 390.216 118.239 387.385 119.6 385.89 C 120.973 384.392 123.879 384.813 126.011 386.836 C 128.16 388.827 128.816 391.678 127.37 393.156 M 145.625 398.588 C 145.029 400.523 142.245 401.404 139.442 400.582 C 136.642 399.734 134.809 397.464 135.374 395.507 C 135.957 393.558 138.752 392.64 141.577 393.521 C 144.373 394.365 146.209 396.617 145.627 398.588 M 166.406 400.89 C 166.476 402.931 164.097 404.622 161.154 404.659 C 158.194 404.723 155.8 403.072 155.769 401.067 C 155.769 399.006 158.093 397.331 161.051 397.282 C 163.994 397.224 166.406 398.863 166.406 400.89 M 186.818 400.108 C 187.171 402.098 185.125 404.143 182.203 404.686 C 179.33 405.21 176.67 403.982 176.303 402.009 C 175.946 399.969 178.031 397.926 180.898 397.396 C 183.826 396.888 186.445 398.085 186.818 400.108" fill="rgba(255, 255, 255, 1.00)"></path>
  </g>
</svg>
