<!-- LinkedIn_Logo -->
<svg xmlns="http://www.w3.org/2000/svg" width="79" height="79">
  <path d="M 1.883 7.245 C 1.883 4.23 4.39 1.783 7.483 1.783 L 72.052 1.783 C 75.144 1.783 77.651 4.23 77.651 7.245 L 77.651 72.57 C 77.651 75.587 75.144 78.032 72.051 78.032 L 7.482 78.032 C 4.39 78.032 1.883 75.587 1.883 72.57 Z" fill="rgb(0,102,153)"></path>
  <path d="M 24.85 65.61 L 24.85 31.18 L 13.407 31.18 L 13.407 65.61 L 24.851 65.61 Z M 19.129 26.48 C 23.119 26.48 25.603 23.836 25.603 20.532 C 25.529 17.153 23.119 14.583 19.204 14.583 C 15.29 14.583 12.73 17.153 12.73 20.532 C 12.73 23.836 15.214 26.48 19.054 26.48 L 19.128 26.48 Z M 31.183 65.61 L 42.627 65.61 L 42.627 46.385 C 42.627 45.355 42.701 44.328 43.003 43.592 C 43.831 41.536 45.713 39.407 48.875 39.407 C 53.016 39.407 54.673 42.564 54.673 47.193 L 54.673 65.61 L 66.116 65.61 L 66.116 45.869 C 66.116 35.294 60.47 30.373 52.941 30.373 C 46.767 30.373 44.057 33.823 42.551 36.173 L 42.627 36.173 L 42.627 31.181 L 31.183 31.181 C 31.333 34.411 31.183 65.611 31.183 65.611 Z" fill="rgb(255,255,255)"></path>
</svg>
